<svg width="56" height="56" viewBox="0 0 56 56" fill="none" xmlns="http://www.w3.org/2000/svg">
<circle cx="28" cy="28" r="28" fill="white"/>
<path d="M14.5241 35.5233C12.0571 35.5233 10.1642 34.859 8.89286 33.5462C7.62149 32.2334 7 30.2906 7 27.7616C7 25.2326 7.63095 23.2868 8.89286 21.9802C10.1548 20.6736 12.0476 20 14.5241 20C15.264 20.0083 16.0022 20.0719 16.7324 20.1902C17.4682 20.3005 18.1947 20.4641 18.9061 20.6798C18.9715 20.6994 19.0274 20.7418 19.0634 20.7992C19.0994 20.8566 19.113 20.925 19.1017 20.9916L18.8493 22.9032C18.8432 22.9496 18.8257 22.9938 18.7982 23.0319C18.7706 23.07 18.734 23.1008 18.6915 23.1215C18.6532 23.14 18.6111 23.1496 18.5685 23.1496C18.5174 23.1486 18.4674 23.1347 18.4234 23.109C17.8424 22.7705 17.2157 22.5154 16.5621 22.3513C15.9 22.1786 15.2183 22.0906 14.5336 22.0893C12.8647 22.0893 11.6501 22.5259 10.9245 23.3897C10.1989 24.2535 9.81405 25.744 9.81405 27.7554C9.81405 29.7667 10.1863 31.2604 10.9245 32.1367C11.6627 33.013 12.8647 33.4402 14.5336 33.4402C15.2182 33.4376 15.8997 33.3495 16.5621 33.1782C17.2163 33.0145 17.8432 32.7582 18.4234 32.4174C18.4677 32.3927 18.5177 32.3798 18.5685 32.3799C18.6111 32.3799 18.6532 32.3895 18.6915 32.408C18.7341 32.4277 18.7709 32.4578 18.7985 32.4955C18.8261 32.5331 18.8436 32.577 18.8493 32.6232L19.1017 34.5784C19.112 34.6457 19.0973 34.7145 19.0601 34.7719C19.023 34.8293 18.966 34.8713 18.8998 34.8902C18.1742 35.0884 17.4366 35.2405 16.6914 35.3455C15.9741 35.4552 15.2499 35.5146 14.5241 35.5233V35.5233Z" fill="#E01C40"/>
<path d="M32.8535 35.314C32.7782 35.314 32.706 35.2844 32.6528 35.2318C32.5995 35.1792 32.5696 35.1078 32.5696 35.0334V26.6137C32.5696 26.3612 32.4403 25.8903 31.8282 25.0764C31.8014 25.0413 31.7834 25.0003 31.7757 24.9569C31.768 24.9135 31.7709 24.869 31.7841 24.8269L31.8692 24.5556C31.8865 24.498 31.9224 24.4476 31.9714 24.4122C32.0204 24.3767 32.0798 24.3581 32.1406 24.3592H34.4877C34.563 24.3592 34.6352 24.3887 34.6885 24.4414C34.7417 24.494 34.7716 24.5654 34.7716 24.6398V25.2853C35.075 25.049 35.4028 24.8452 35.7496 24.6772C36.353 24.3917 37.0145 24.2466 37.6835 24.2531C38.0387 24.2524 38.3933 24.2816 38.7435 24.3405C38.8149 24.3534 38.8786 24.393 38.9215 24.451C38.9643 24.509 38.983 24.5811 38.9738 24.6523L38.8287 26.4609C38.8255 26.4985 38.8146 26.535 38.7967 26.5682C38.7788 26.6014 38.7543 26.6307 38.7245 26.6543C38.6747 26.697 38.6107 26.7203 38.5447 26.7198H38.5132C38.0146 26.6646 37.5132 26.6376 37.0115 26.6387C36.3399 26.6277 35.6704 26.7139 35.024 26.8944V35.0334C35.024 35.0702 35.0167 35.1067 35.0024 35.1408C34.9881 35.1748 34.9672 35.2057 34.9408 35.2318C34.9145 35.2579 34.8832 35.2785 34.8487 35.2926C34.8143 35.3068 34.7774 35.314 34.7401 35.314H32.8535Z" fill="#E01C40"/>
<path d="M45.0681 35.4825C43.2258 35.4825 41.7809 35.0428 40.7808 34.1759C39.7808 33.309 39.2539 31.8621 39.2539 29.9037C39.2539 27.9454 39.7555 26.4517 40.743 25.538C41.7777 24.6147 43.1356 24.1259 44.5287 24.1753C46.1061 24.1753 47.3333 24.6181 48.144 25.4912C48.9548 26.3644 49.3523 27.7708 49.3523 29.6917C49.3538 29.9788 49.3316 30.2656 49.2861 30.5492C49.2748 30.6148 49.2405 30.6742 49.1891 30.7171C49.1376 30.7599 49.0725 30.7833 49.0053 30.7831H41.8377C42.008 32.5575 43.0806 33.4213 45.1091 33.4213C45.746 33.4186 46.3807 33.3475 47.002 33.2092C47.5415 33.101 48.0695 32.9434 48.5794 32.7383C48.6151 32.7224 48.6538 32.7139 48.693 32.7134C48.748 32.7135 48.8019 32.7298 48.8475 32.7602C48.8866 32.7859 48.9188 32.8206 48.9414 32.8614C48.9639 32.9021 48.9761 32.9476 48.9769 32.994V34.784C48.9769 34.8459 48.9561 34.9061 48.9179 34.9552C48.8797 35.0043 48.8261 35.0395 48.7655 35.0553C48.2139 35.1968 47.6531 35.301 47.0872 35.3671C46.4172 35.4469 45.7429 35.4855 45.0681 35.4825ZM46.7906 28.8591C46.7654 27.8674 46.5824 27.1502 46.2543 26.723C45.9262 26.2958 45.3521 26.0525 44.5823 26.0525C44.2362 26.0279 43.8887 26.0757 43.5625 26.1928C43.2363 26.31 42.9388 26.4938 42.6894 26.7323C42.2888 27.1533 42.0333 27.8674 41.9323 28.856L46.7906 28.8591Z" fill="#E01C40"/>
<path d="M31.3898 29.2958C31.4308 30.6461 30.803 31.962 29.519 33.2468L29.1562 32.8882L28.4937 32.2209L28.2193 31.9496C28.3762 31.7906 28.5227 31.6219 28.6578 31.4444C28.8582 31.1953 29.0065 30.9094 29.0943 30.6032C29.182 30.297 29.2073 29.9766 29.1689 29.6607C29.1441 29.4859 29.0996 29.3143 29.0364 29.1493C28.9969 29.043 28.9516 28.9389 28.9007 28.8374C28.5255 28.1473 28.0385 27.5227 27.459 26.9882L29.254 25.2139C30.5917 26.534 31.3015 27.852 31.3835 29.168C31.3867 29.2023 31.3898 29.249 31.3898 29.2958Z" fill="#317AA4"/>
<path d="M29.2538 25.1986L28.9099 25.5385L28.6417 25.8005L28.3515 26.0905L27.4587 26.9886C26.446 25.9907 25.5438 25.4294 24.733 25.3234C23.9222 25.2174 23.1556 25.5198 22.4206 26.2589L22.2281 26.0718L22.1461 25.9907L21.1113 24.9305C22.4216 23.6561 23.7529 23.0324 25.1053 23.0594H25.3576C26.6448 23.1935 27.9382 23.8983 29.2538 25.1986Z" fill="#469443"/>
<path d="M23.0515 31.3286L22.8433 31.5344L22.1839 32.1955L21.8937 32.4855L21.2627 33.1092C19.9346 31.7932 19.2248 30.4742 19.149 29.152C19.149 29.099 19.149 29.0459 19.149 28.9898C19.1259 27.6136 19.7737 26.2737 21.0924 24.9702L21.1334 24.9297L21.4993 25.2914L22.2565 26.0398L22.4489 26.2269L22.4111 26.2644C22.2355 26.4338 22.077 26.6197 21.9378 26.8194C21.5425 27.335 21.3669 27.9831 21.4489 28.625C21.466 28.8036 21.5009 28.9801 21.553 29.152C21.5756 29.2209 21.602 29.2885 21.6318 29.3547C21.9673 30.0995 22.45 30.7706 23.0515 31.3286V31.3286Z" fill="#E01C40"/>
<path d="M29.5201 33.2467L29.4854 33.281C28.1604 34.5907 26.807 35.23 25.4126 35.2019H25.359C23.9898 35.1614 22.6144 34.4629 21.2578 33.1126L22.851 31.5378L23.0592 31.332C24.0561 32.3174 24.971 32.8632 25.7944 32.9661C26.6178 33.069 27.4064 32.7415 28.1794 31.9775L28.2172 31.9464L28.4917 32.2176L29.1668 32.885L29.5201 33.2467Z" fill="#FDB827"/>
</svg>
